<svg width="15" height="15" viewBox="0 0 15 15" fill="none" xmlns="http://www.w3.org/2000/svg">
<path d="M8.90939 6.11777C10.4603 7.66867 10.4344 10.1501 8.90939 11.6493C8.90939 11.6752 8.90939 11.6752 8.90939 11.6752L7.17755 13.407C5.65249 14.9321 3.1452 14.9321 1.62014 13.407C0.0950866 11.882 0.0950866 9.37466 1.62014 7.84961L2.57653 6.89322C2.83502 6.63474 3.27444 6.81567 3.27444 7.17755C3.30029 7.61697 3.37783 8.08224 3.53292 8.52167C3.58462 8.67676 3.55877 8.8577 3.42953 8.96109L3.0935 9.29712C2.36974 10.0209 2.3439 11.2099 3.06765 11.9337C3.79141 12.6833 4.98043 12.6833 5.70419 11.9337L7.46188 10.2018C8.18563 9.47806 8.18563 8.31488 7.46188 7.56528C7.35848 7.48773 7.25509 7.41019 7.17755 7.35849C7.07415 7.28094 6.99661 7.17755 6.99661 7.02246C6.99661 6.76398 7.1 6.47964 7.30679 6.24701L7.8496 5.70419C8.00469 5.57495 8.21148 5.5491 8.39242 5.67834C8.57336 5.80759 8.7543 5.96268 8.90939 6.11777ZM12.554 2.47314C14.0791 3.9982 14.0791 6.50549 12.554 8.03055L11.5976 8.98694C11.3391 9.24542 10.8997 9.06448 10.8997 8.70261C10.8739 8.26318 10.7963 7.79791 10.6412 7.35849C10.5895 7.2034 10.6154 7.02246 10.7446 6.91907L11.0807 6.58304C11.8044 5.85928 11.8303 4.67026 11.1065 3.9465C10.3827 3.1969 9.19372 3.1969 8.46996 3.9465L6.71227 5.67834C5.98852 6.4021 5.98852 7.56528 6.71227 8.31488C6.81567 8.39243 6.91906 8.46997 6.99661 8.52167C7.1 8.59921 7.17755 8.70261 7.17755 8.8577C7.17755 9.11618 7.07415 9.40051 6.86736 9.63315L6.32455 10.176C6.16946 10.3052 5.96267 10.3311 5.78173 10.2018C5.60079 10.0726 5.41985 9.91748 5.26476 9.76239C3.71386 8.21149 3.73971 5.73004 5.26476 4.23083C5.26476 4.20499 5.26476 4.20499 5.26476 4.20499L6.99661 2.47314C8.52166 0.94809 11.029 0.94809 12.554 2.47314Z" fill="#606770"/>
</svg>
