<svg width="13" height="13" viewBox="0 0 13 13" fill="none" xmlns="http://www.w3.org/2000/svg">
<path d="M3.48438 12.72H0.941406V4.54425H3.48438V12.72ZM2.19922 3.4505C1.40625 3.4505 0.75 2.76691 0.75 1.94659C0.75 1.15363 1.40625 0.497375 2.19922 0.497375C3.01953 0.497375 3.67578 1.15363 3.67578 1.94659C3.67578 2.76691 3.01953 3.4505 2.19922 3.4505ZM12.9727 12.72H10.457V8.75519C10.457 7.79816 10.4297 6.59503 9.11719 6.59503C7.80469 6.59503 7.61328 7.60675 7.61328 8.67316V12.72H5.07031V4.54425H7.50391V5.66534H7.53125C7.88672 5.03644 8.70703 4.35284 9.9375 4.35284C12.5078 4.35284 13 6.04816 13 8.23566V12.72H12.9727Z" fill="#606770"/>
</svg>
