<svg width="89" height="44" viewBox="0 0 89 44" fill="none" xmlns="http://www.w3.org/2000/svg">
<path d="M24.8059 34.3339C19.816 38.0873 12.843 37.9897 7.71452 34.5833C3.80707 31.9883 1.23313 27.6419 0.98982 22.9508L0.980957 21.9382C0.985391 17.875 2.82106 13.8916 5.76578 11.1059C10.8067 6.3372 19.1425 5.41327 24.7853 9.65715C24.9245 9.7619 25.5823 10.233 25.65 10.3566L25.6583 0.0692139L25.6816 0.0736454C26.7175 0.109117 27.7783 0.346339 28.7782 0.605727C38.5024 3.13199 45.4499 11.7871 45.4499 21.8473C45.4499 26.4791 44.0898 30.7474 41.4338 34.5723L40.4162 35.9545C36.7139 40.5082 31.4762 43.3377 25.6605 43.9307L25.655 33.6106C25.5873 33.7287 25.4942 33.763 25.3928 33.8451L24.8059 34.3339ZM31.6486 9.67101C31.7323 9.98915 31.7168 10.3278 31.7173 10.6509L31.7312 34.2364C31.8287 34.1344 31.9617 34.0723 32.0748 33.9859L32.8003 33.3956C33.609 32.7 34.3167 31.9036 34.9597 31.0539C36.991 28.3126 38.1183 25.2565 38.1128 21.8512C38.1061 17.9082 36.3991 14.1515 33.6084 11.3797L32.5154 10.3949C32.2289 10.1593 31.9119 9.93261 31.6486 9.67101ZM15.9584 14.5162C11.7162 14.5196 8.2477 18.5905 8.64953 22.749C9.03251 26.7191 12.2566 29.5724 16.2028 29.5552L16.2965 29.5546C19.5505 29.4366 22.437 27.1708 23.2983 24.0271C24.4866 19.6868 21.5236 15.0699 16.9577 14.5517C16.6274 14.514 16.2909 14.5262 15.9584 14.5162Z" fill="#016766"/>
<path d="M49.8838 27.0928V13.9763H52.8959C53.4897 13.9763 54.005 14.0412 54.4423 14.1707C54.8796 14.3002 55.244 14.5 55.5354 14.7699C55.8268 15.0398 56.0427 15.3823 56.1831 15.7981C56.3235 16.2138 56.3935 16.7022 56.3935 17.2635C56.3935 17.8032 56.3261 18.2701 56.1911 18.6643C56.0562 19.0582 55.8512 19.3686 55.5758 19.5954C55.3005 19.8219 54.9471 19.9678 54.5153 20.0324C55.0441 20.1512 55.4704 20.3537 55.7943 20.6396C56.1182 20.9259 56.3585 21.2928 56.515 21.741C56.6714 22.1889 56.7499 22.7261 56.7499 23.352C56.7499 23.9136 56.6849 24.4264 56.5555 24.8903C56.426 25.3546 56.2236 25.7488 55.9482 26.0723C55.6729 26.3962 55.322 26.6475 54.8957 26.8255C54.4693 27.0034 53.9645 27.0928 53.3817 27.0928H49.8838ZM51.7139 25.7809H52.9444C53.765 25.7809 54.3129 25.5895 54.5882 25.2061C54.8632 24.8228 55.0011 24.205 55.0011 23.352C55.0011 22.8016 54.9281 22.3399 54.7822 21.9675C54.6367 21.5951 54.4044 21.3143 54.086 21.1254C53.7676 20.9365 53.3383 20.842 52.7986 20.842H51.7139V25.7809ZM51.7139 19.4495H52.7986C53.3168 19.4495 53.7216 19.3766 54.0131 19.2311C54.3048 19.0852 54.5098 18.8503 54.6287 18.5265C54.7472 18.2026 54.8067 17.7817 54.8067 17.2635C54.8067 16.6591 54.7148 16.2219 54.5313 15.952C54.3479 15.6821 54.0619 15.5121 53.6731 15.4417C53.2844 15.3717 52.777 15.3367 52.1508 15.3367H51.7139V19.4495ZM58.3852 27.0928V13.9763H60.118V27.0928H58.3852ZM64.5062 27.2223C63.8154 27.2223 63.2702 27.0819 62.8708 26.801C62.4714 26.5206 62.1881 26.1212 62.0207 25.603C61.8533 25.0847 61.7697 24.4749 61.7697 23.7732V21.0528C61.7697 20.3511 61.8533 19.7409 62.0207 19.2227C62.1881 18.7048 62.4714 18.3051 62.8708 18.0246C63.2702 17.7438 63.8154 17.6037 64.5062 17.6037C65.1973 17.6037 65.7396 17.7438 66.1335 18.0246C66.5278 18.3051 66.8086 18.7048 66.9756 19.2227C67.143 19.7409 67.2266 20.3511 67.2266 21.0528V23.7732C67.2266 24.4749 67.143 25.0847 66.9756 25.603C66.8086 26.1212 66.5278 26.5206 66.1335 26.801C65.7396 27.0819 65.1973 27.2223 64.5062 27.2223ZM64.5062 25.9429C64.841 25.9429 65.0759 25.8459 65.2108 25.6515C65.3457 25.4571 65.4267 25.2007 65.4537 24.8823C65.4807 24.5639 65.4942 24.232 65.4942 23.8866V20.9554C65.4942 20.5991 65.4807 20.2647 65.4537 19.9514C65.4267 19.6385 65.3457 19.3821 65.2108 19.1822C65.0759 18.9827 64.841 18.8828 64.5062 18.8828C64.1717 18.8828 63.9343 18.9827 63.7939 19.1822C63.6535 19.3821 63.57 19.6385 63.543 19.9514C63.516 20.2647 63.5025 20.5991 63.5025 20.9554V23.8866C63.5025 24.232 63.516 24.5639 63.543 24.8823C63.57 25.2007 63.6535 25.4571 63.7939 25.6515C63.9343 25.8459 64.1717 25.9429 64.5062 25.9429ZM71.2749 30.0236C70.703 30.0236 70.1873 29.9616 69.7285 29.8373C69.2697 29.7133 68.9079 29.5218 68.6435 29.2625C68.379 29.0035 68.247 28.6633 68.247 28.2424C68.247 27.9185 68.3225 27.6351 68.4735 27.3922C68.6245 27.1493 68.8189 26.9414 69.0567 26.7689C69.2941 26.5961 69.5425 26.4611 69.8014 26.3641L70.6111 26.4772C70.4707 26.607 70.3357 26.739 70.2063 26.874C70.0768 27.0089 69.9688 27.1493 69.8824 27.2952C69.796 27.4407 69.7529 27.6001 69.7529 27.7726C69.7529 28.0535 69.8744 28.2639 70.1173 28.4043C70.3602 28.5447 70.7945 28.6147 71.4207 28.6147C72.036 28.6147 72.4923 28.5418 72.7891 28.3963C73.086 28.2504 73.2344 28.021 73.2344 27.7081C73.2344 27.5137 73.1965 27.3543 73.121 27.2303C73.0455 27.1063 72.9157 27.0064 72.7322 26.9309C72.5488 26.855 72.2844 26.801 71.939 26.7689L69.8984 26.5096C69.4776 26.4557 69.1646 26.3207 68.9593 26.1048C68.7543 25.8889 68.6518 25.6515 68.6518 25.3925C68.6518 25.0037 68.7624 24.6744 68.9837 24.4045C69.2051 24.1346 69.5046 23.8326 69.8824 23.4978L70.4652 23.9512C70.4006 24.0376 70.3197 24.1591 70.2223 24.3155C70.1253 24.472 70.0768 24.6259 70.0768 24.7773C70.0768 24.8958 70.1388 24.9932 70.2628 25.0687C70.3872 25.1442 70.5841 25.1927 70.854 25.2142L72.4248 25.3601C73.1586 25.425 73.7038 25.646 74.0602 26.0238C74.4165 26.4017 74.5945 26.9414 74.5945 27.6432C74.5945 28.1614 74.473 28.5987 74.2301 28.955C73.9872 29.311 73.6229 29.5783 73.1371 29.7563C72.6513 29.9346 72.0305 30.0236 71.2749 30.0236ZM71.3398 24.2105C70.703 24.2105 70.1847 24.0701 69.7854 23.7893C69.3856 23.5088 69.0917 23.12 68.9028 22.6233C68.7139 22.1269 68.6194 21.5601 68.6194 20.923C68.6194 20.1998 68.7219 19.5925 68.9268 19.1012C69.1322 18.6103 69.4371 18.238 69.8419 17.9841C70.2467 17.7303 70.746 17.6037 71.3398 17.6037C71.955 17.6037 72.4573 17.7573 72.8457 18.0651C73.2345 18.3726 73.5204 18.7803 73.7038 19.2876C73.8873 19.7949 73.9792 20.3562 73.9792 20.9719C73.9792 21.6086 73.8957 22.1729 73.7283 22.6638C73.5609 23.155 73.2855 23.5358 72.9022 23.8057C72.5193 24.0755 71.9985 24.2105 71.3398 24.2105ZM71.3398 22.9635C71.5772 22.9635 71.7661 22.9176 71.9065 22.8257C72.047 22.7341 72.152 22.6017 72.2224 22.4292C72.2924 22.2564 72.3409 22.043 72.3679 21.7895C72.3949 21.5357 72.4084 21.2468 72.4084 20.923C72.4084 20.5991 72.3978 20.3077 72.3763 20.0488C72.3544 19.7895 72.3059 19.571 72.2304 19.393C72.1549 19.2147 72.047 19.0772 71.9065 18.9798C71.7661 18.8828 71.5827 18.8343 71.3558 18.8343C71.1184 18.8343 70.9269 18.8802 70.781 18.9718C70.6355 19.0637 70.5221 19.1986 70.4411 19.3766C70.3602 19.555 70.3062 19.7734 70.2792 20.0324C70.2522 20.2917 70.2387 20.5885 70.2387 20.923C70.2387 21.2147 70.2522 21.4846 70.2792 21.7326C70.3062 21.981 70.3572 22.1969 70.4331 22.3804C70.5086 22.5642 70.6191 22.7072 70.765 22.8096C70.9105 22.9121 71.1024 22.9635 71.3398 22.9635ZM73.6553 19.3037L73.2505 18.6559C73.3369 18.5049 73.5313 18.316 73.8333 18.0892C74.1357 17.8627 74.4595 17.6738 74.8049 17.5228L75.2586 18.6559C75.1073 18.6884 74.9048 18.7478 74.6514 18.8343C74.3975 18.9207 74.1681 19.0097 73.9632 19.1012C73.7578 19.1932 73.6553 19.2606 73.6553 19.3037ZM78.2379 30.0236C77.6661 30.0236 77.1504 29.9616 76.6916 29.8373C76.2327 29.7133 75.8709 29.5218 75.6065 29.2625C75.3421 29.0035 75.2097 28.6633 75.2097 28.2424C75.2097 27.9185 75.2856 27.6351 75.4366 27.3922C75.5876 27.1493 75.782 26.9414 76.0194 26.7689C76.2572 26.5961 76.5052 26.4611 76.7645 26.3641L77.5742 26.4772C77.4337 26.607 77.2988 26.739 77.1693 26.874C77.0399 27.0089 76.9315 27.1493 76.8455 27.2952C76.759 27.4407 76.716 27.6001 76.716 27.7726C76.716 28.0535 76.8374 28.2639 77.0803 28.4043C77.3232 28.5447 77.7576 28.6147 78.3838 28.6147C78.9991 28.6147 79.4553 28.5418 79.7522 28.3963C80.0487 28.2504 80.1975 28.021 80.1975 27.7081C80.1975 27.5137 80.1596 27.3543 80.0841 27.2303C80.0082 27.1063 79.8788 27.0064 79.6953 26.9309C79.5119 26.855 79.2475 26.801 78.9021 26.7689L76.8615 26.5096C76.4406 26.4557 76.1277 26.3207 75.9224 26.1048C75.7171 25.8889 75.6146 25.6515 75.6146 25.3925C75.6146 25.0037 75.7254 24.6744 75.9468 24.4045C76.1682 24.1346 76.4676 23.8326 76.8455 23.4978L77.4283 23.9512C77.3637 24.0376 77.2828 24.1591 77.1854 24.3155C77.0884 24.472 77.0399 24.6259 77.0399 24.7773C77.0399 24.8958 77.1019 24.9932 77.2259 25.0687C77.3502 25.1442 77.5472 25.1927 77.8171 25.2142L79.3879 25.3601C80.1217 25.425 80.6669 25.646 81.0232 26.0238C81.3796 26.4017 81.5575 26.9414 81.5575 27.6432C81.5575 28.1614 81.4361 28.5987 81.1932 28.955C80.9503 29.311 80.5859 29.5783 80.1002 29.7563C79.6144 29.9346 78.9936 30.0236 78.2379 30.0236ZM78.3028 24.2105C77.6661 24.2105 77.1478 24.0701 76.7481 23.7893C76.3487 23.5088 76.0548 23.12 75.8659 22.6233C75.6766 22.1269 75.5825 21.5601 75.5825 20.923C75.5825 20.1998 75.6849 19.5925 75.8899 19.1012C76.0952 18.6103 76.4002 18.238 76.805 17.9841C77.2098 17.7303 77.7091 17.6037 78.3028 17.6037C78.9181 17.6037 79.42 17.7573 79.8087 18.0651C80.1975 18.3726 80.4835 18.7803 80.6669 19.2876C80.8504 19.7949 80.9423 20.3562 80.9423 20.9719C80.9423 21.6086 80.8584 22.1729 80.6913 22.6638C80.5239 23.155 80.2486 23.5358 79.8653 23.8057C79.482 24.0755 78.9612 24.2105 78.3028 24.2105ZM78.3028 22.9635C78.5403 22.9635 78.7292 22.9176 78.8696 22.8257C79.01 22.7341 79.1151 22.6017 79.1855 22.4292C79.2555 22.2564 79.304 22.043 79.331 21.7895C79.358 21.5357 79.3715 21.2468 79.3715 20.923C79.3715 20.5991 79.3605 20.3077 79.339 20.0488C79.3175 19.7895 79.269 19.571 79.1935 19.393C79.1176 19.2147 79.01 19.0772 78.8696 18.9798C78.7292 18.8828 78.5457 18.8343 78.3189 18.8343C78.0815 18.8343 77.89 18.8802 77.7441 18.9718C77.5982 19.0637 77.4852 19.1986 77.4042 19.3766C77.3232 19.555 77.2693 19.7734 77.2423 20.0324C77.2149 20.2917 77.2018 20.5885 77.2018 20.923C77.2018 21.2147 77.2149 21.4846 77.2423 21.7326C77.2693 21.981 77.3203 22.1969 77.3958 22.3804C77.4717 22.5642 77.5822 22.7072 77.7281 22.8096C77.8736 22.9121 78.0651 22.9635 78.3028 22.9635ZM80.6184 19.3037L80.2136 18.6559C80.3 18.5049 80.494 18.316 80.7964 18.0892C81.0987 17.8627 81.4226 17.6738 81.768 17.5228L82.2213 18.6559C82.0703 18.6884 81.8679 18.7478 81.6141 18.8343C81.3606 18.9207 81.1312 19.0097 80.9259 19.1012C80.7209 19.1932 80.6184 19.2606 80.6184 19.3037ZM84.3104 27.2223C83.9431 27.2223 83.6193 27.1169 83.3388 26.9064C83.0583 26.696 82.8369 26.4261 82.675 26.0968C82.5131 25.7674 82.4321 25.4195 82.4321 25.0522C82.4321 24.4694 82.5291 23.9782 82.7235 23.5788C82.9179 23.1795 83.1849 22.8421 83.5252 22.5667C83.8651 22.2914 84.259 22.0514 84.7072 21.8461C85.155 21.6411 85.6274 21.4412 86.1241 21.2468V20.5831C86.1241 20.2052 86.1026 19.8923 86.0592 19.6439C86.0161 19.3956 85.9268 19.2092 85.7922 19.0852C85.6573 18.9612 85.4548 18.8988 85.185 18.8988C84.9472 18.8988 84.7557 18.9528 84.6098 19.0608C84.4643 19.1687 84.3589 19.3226 84.2943 19.5225C84.2294 19.722 84.197 19.9569 84.197 20.2267V20.6965L82.4806 20.6316C82.5021 19.5954 82.7396 18.8314 83.1929 18.3405C83.6466 17.8492 84.348 17.6037 85.298 17.6037C86.2266 17.6037 86.8853 17.8572 87.2737 18.3645C87.6624 18.8718 87.8568 19.606 87.8568 20.567V24.8418C87.8568 25.1332 87.8649 25.414 87.8809 25.6839C87.8973 25.9538 87.9188 26.2047 87.9458 26.4367C87.9728 26.669 87.9969 26.8875 88.0188 27.0928H86.4315C86.3994 26.9199 86.359 26.7015 86.3101 26.4367C86.2616 26.1723 86.2266 25.9323 86.2051 25.7164C86.0971 26.0833 85.8892 26.4261 85.5814 26.7445C85.2739 27.0629 84.8502 27.2223 84.3104 27.2223ZM84.9906 25.7324C85.1634 25.7324 85.3254 25.6839 85.4764 25.5869C85.6274 25.4895 85.7623 25.379 85.8812 25.2547C85.9997 25.1307 86.0807 25.0307 86.1241 24.9552V22.2994C85.8542 22.4508 85.6004 22.6017 85.3629 22.7531C85.1255 22.9041 84.9176 23.0635 84.7397 23.2305C84.5613 23.3979 84.4209 23.5868 84.3184 23.7973C84.2159 24.0081 84.1645 24.2481 84.1645 24.5179C84.1645 24.8958 84.2349 25.1927 84.3753 25.4086C84.5157 25.6245 84.7207 25.7324 84.9906 25.7324Z" fill="black"/>
</svg>
