<svg width="15" height="13" viewBox="0 0 15 13" fill="none" xmlns="http://www.w3.org/2000/svg">
<path d="M13.3008 3.62628C13.3008 3.763 13.3008 3.87238 13.3008 4.00909C13.3008 7.80988 10.4297 12.1575 5.15234 12.1575C3.51172 12.1575 2.00781 11.6927 0.75 10.8724C0.96875 10.8997 1.1875 10.9271 1.43359 10.9271C2.77344 10.9271 4.00391 10.4622 4.98828 9.69659C3.73047 9.66925 2.66406 8.84894 2.30859 7.7005C2.5 7.72784 2.66406 7.75519 2.85547 7.75519C3.10156 7.75519 3.375 7.7005 3.59375 7.64581C2.28125 7.37238 1.29688 6.22394 1.29688 4.82941V4.80206C1.67969 5.02081 2.14453 5.13019 2.60938 5.15753C1.81641 4.638 1.32422 3.763 1.32422 2.77863C1.32422 2.23175 1.46094 1.73956 1.70703 1.32941C3.12891 3.05206 5.26172 4.2005 7.64062 4.33722C7.58594 4.11847 7.55859 3.89972 7.55859 3.68097C7.55859 2.09503 8.84375 0.809875 10.4297 0.809875C11.25 0.809875 11.9883 1.138 12.5352 1.71222C13.1641 1.5755 13.793 1.32941 14.3398 1.00128C14.1211 1.68488 13.6836 2.23175 13.082 2.58722C13.6562 2.53253 14.2305 2.36847 14.7227 2.14972C14.3398 2.72394 13.8477 3.21613 13.3008 3.62628Z" fill="#606770"/>
</svg>
