<svg width="45" height="44" viewBox="0 0 45 44" fill="none" xmlns="http://www.w3.org/2000/svg">
<path id="Vector" d="M23.8249 34.2647C18.835 38.0181 11.862 37.9205 6.73356 34.5141C2.82611 31.9191 0.252178 27.5727 0.00886309 22.8816L0 21.869C0.00443398 17.8058 1.8401 13.8224 4.78482 11.0367C9.8257 6.26799 18.1616 5.34406 23.8044 9.58793C23.9435 9.69268 24.6014 10.1638 24.669 10.2874L24.6773 0L24.7006 0.00443155C25.7365 0.0399034 26.7973 0.277125 27.7972 0.536513C37.5215 3.06277 44.469 11.7179 44.469 21.7781C44.469 26.4099 43.1088 30.6782 40.4529 34.503L39.4353 35.8853C35.7329 40.439 30.4953 43.2685 24.6795 43.8615L24.674 33.5414C24.6064 33.6595 24.5133 33.6938 24.4118 33.7759L23.8249 34.2647ZM30.6676 9.60179C30.7513 9.91993 30.7358 10.2586 30.7364 10.5817L30.7502 34.1672C30.8478 34.0652 30.9808 34.0031 31.0939 33.9167L31.8194 33.3264C32.628 32.6308 33.3358 31.8343 33.9787 30.9847C36.01 28.2434 37.1374 25.1872 37.1318 21.7819C37.1252 17.839 35.4181 14.0823 32.6275 11.3105L31.5345 10.3256C31.2479 10.0901 30.9309 9.8634 30.6676 9.60179ZM14.9774 14.447C10.7352 14.4503 7.26674 18.5213 7.66857 22.6798C8.05156 26.6499 11.2756 29.5032 15.2219 29.486L15.3155 29.4854C18.5695 29.3674 21.456 27.1016 22.3173 23.9579C23.5056 19.6176 20.5426 15.0007 15.9767 14.4825C15.6464 14.4448 15.31 14.457 14.9774 14.447Z" fill="#016766"/>
</svg>
